<svg width="96" height="96" xmlns="http://www.w3.org/2000/svg" xmlns:xlink="http://www.w3.org/1999/xlink" xml:space="preserve" overflow="hidden"><g><path d="M47.985 10C27.0092 9.99945 10.0046 27.0032 10.004 47.979 10.0034 68.9548 27.0072 85.9594 47.983 85.96 68.9588 85.9605 85.9634 68.9568 85.964 47.981 85.964 47.9797 85.964 47.9783 85.964 47.977 85.9717 27.0106 68.9814 10.0077 48.015 10 48.005 9.99999 47.995 9.99999 47.985 10ZM64.955 60.169 60.174 64.95 47.985 52.759 35.8 64.948 31.019 60.167 43.2 47.977 31.014 35.788 35.8 31.007 47.985 43.2 60.174 31.007 64.955 35.788 52.766 47.977Z" fill="#FF0000"/></g></svg>